<svg xmlns="http://www.w3.org/2000/svg" xmlns:xlink="http://www.w3.org/1999/xlink" viewBox="0 0 342.57 294.65"><defs><style>.cls-1{isolation:isolate;}.cls-2{fill:#fff;}.cls-3,.cls-5{mix-blend-mode:multiply;}.cls-4{fill:url(#radial-gradient);}.cls-5{opacity:0.82;}.cls-6{fill:url(#radial-gradient-2);}.cls-7{fill:url(#radial-gradient-3);}</style><radialGradient id="radial-gradient" cx="132.35" cy="302.94" r="483.14" gradientTransform="translate(-1.95 99.64) scale(0.51)" gradientUnits="userSpaceOnUse"><stop offset="0" stop-color="#d6de23"/><stop offset="1" stop-color="#37b34a"/></radialGradient><radialGradient id="radial-gradient-2" cx="526.85" cy="164.25" r="288.28" gradientTransform="translate(-1.95 99.64) scale(0.51)" gradientUnits="userSpaceOnUse"><stop offset="0" stop-color="#faaf40"/><stop offset="1" stop-color="#be1e2d"/></radialGradient><radialGradient id="radial-gradient-3" cx="52.08" cy="221.81" r="326.95" gradientTransform="translate(140.39 -92.04) scale(0.85)" gradientUnits="userSpaceOnUse"><stop offset="0" stop-color="#d6de23"/><stop offset="1" stop-color="#faaf40"/></radialGradient></defs><title>apica_logo</title><g class="cls-1"><g id="Layer_1" data-name="Layer 1"><path class="cls-2" d="M344.46,309l-42.72-74L195.68,51.34a26,26,0,0,0-45,0L6.94,300.18a21.87,21.87,0,0,0,19,32.82l304.89-.35A15.76,15.76,0,0,0,344.46,309Z" transform="translate(-4 -38.35)"/><g class="cls-3"><path class="cls-4" d="M279.23,274H67.12a26,26,0,0,1-22.5-39L150.67,51.34a26,26,0,0,1,22.5-13h0a26,26,0,0,1,22.51,13L301.74,235a26,26,0,0,1-22.5,39Z" transform="translate(-4 -38.35)"/></g><g class="cls-5"><path class="cls-6" d="M330.82,332.65l-128.67.15a15.74,15.74,0,0,1-13.66-23.62l64.37-111.45a15.77,15.77,0,0,1,13.65-7.88h0a15.77,15.77,0,0,1,13.65,7.87L344.46,309a15.76,15.76,0,0,1-13.63,23.64Z" transform="translate(-4 -38.35)"/></g><g class="cls-3"><path class="cls-7" d="M204.84,332.8l-178.9.2a21.87,21.87,0,0,1-19-32.82L96.46,145.35a21.92,21.92,0,0,1,19-10.94h0a21.91,21.91,0,0,1,19,10.94L223.79,300a21.89,21.89,0,0,1-19,32.82Z" transform="translate(-4 -38.35)"/></g></g></g></svg>